<svg width="51" height="49" viewBox="0 0 51 49" fill="none" xmlns="http://www.w3.org/2000/svg">
<path d="M23.7859 49C23.0476 49 22.2565 48.7822 21.5708 48.292C15.0838 43.7718 0 32.4442 0 24.493C0 16.5419 15.0838 5.15976 21.5708 0.694045C23.364 -0.558533 25.8428 -0.0683936 27.0558 1.78324C28.2689 3.63488 27.7942 6.1945 26.001 7.44708C19.7777 11.7494 13.9762 16.7597 10.6536 20.3541H47.0445C49.2068 20.3541 51 22.2057 51 24.4386C51 26.6714 49.2068 28.5231 47.0445 28.5231H10.6008C13.8707 32.1174 19.7249 37.1822 25.9483 41.4845C27.7415 42.7371 28.2161 45.2967 27.0031 47.1484C26.2647 48.3465 24.999 48.9455 23.7332 48.9455L23.7859 49Z" fill="black"/>
</svg>
