<svg width="25" height="21" viewBox="0 0 25 21" fill="none" xmlns="http://www.w3.org/2000/svg">
<path d="M9.79 20.2595C9.68 20.1395 9.18 19.7095 8.79 19.2595C5.46893 15.8614 2.72605 11.943 0.670001 7.65948C0.343802 6.90224 0.118539 6.10542 5.53462e-07 5.28948C-0.000499825 4.6596 0.150405 4.03883 0.44 3.47948C0.85091 2.76157 1.48709 2.19919 2.25 1.87948C2.95 1.66948 3.67 1.49948 4.39 1.35948C6.92666 0.998235 9.48821 0.841062 12.05 0.889478C14.5303 0.862638 17.0094 1.00631 19.47 1.31948C20.3776 1.47052 21.2707 1.698 22.14 1.99948C22.7331 2.29493 23.2335 2.74792 23.5862 3.30883C23.939 3.86974 24.1306 4.51692 24.14 5.17948L24.14 5.28948C23.99 6.2076 23.7105 7.09982 23.31 7.93948C21.2756 12.1461 18.574 15.9958 15.31 19.3395C14.9616 19.6998 14.5873 20.034 14.19 20.3395C13.5761 20.781 12.8361 21.0125 12.08 20.9995C11.2564 21.0089 10.4523 20.749 9.79 20.2595Z" fill="#82848C"/>
</svg>
