<svg width="270" height="97" viewBox="0 0 270 97" fill="none" xmlns="http://www.w3.org/2000/svg">
<path d="M44.3835 89.9952C45.9369 89.9749 47.4354 89.4229 48.6243 88.4329C49.908 87.4687 50.8421 86.1191 51.2871 84.5859C51.4045 84.136 51.4674 83.6738 51.4745 83.2092C51.4838 82.3266 51.2073 81.4643 50.6855 80.7486C50.2995 80.2377 49.793 79.8281 49.2102 79.5558C48.6273 79.2834 47.986 79.1566 47.3422 79.1864C45.7857 79.206 44.2839 79.7579 43.0916 80.7486C41.8199 81.718 40.8911 83.0614 40.4386 84.5859C40.3244 85.0395 40.2648 85.5049 40.2611 85.9724C40.2497 86.8553 40.5264 87.7182 41.0501 88.4329C41.429 88.949 41.9329 89.3624 42.5153 89.6354C43.0978 89.9084 43.7402 90.0321 44.3835 89.9952Z" fill="black"/>
<path d="M56.7604 89.9952C58.3172 89.9772 59.8195 89.4251 61.011 88.433C62.2922 87.4644 63.2284 86.1169 63.6837 84.5859C63.7984 84.1357 63.858 83.6735 63.8612 83.2092C63.8849 82.3321 63.6259 81.4702 63.1216 80.7487C62.7309 80.2306 62.2164 79.8167 61.6242 79.544C61.0321 79.2713 60.3808 79.1485 59.7289 79.1864C58.1721 79.2044 56.6698 79.7566 55.4783 80.7487C54.1932 81.7094 53.2558 83.0552 52.8056 84.5859C52.6914 85.0396 52.6318 85.505 52.6281 85.9724C52.6124 86.8559 52.8895 87.7202 53.4171 88.433C53.795 88.9525 54.3001 89.3683 54.8849 89.6416C55.4697 89.9149 56.1151 90.0365 56.7604 89.9952Z" fill="black"/>
<path d="M71.9976 79.1861C70.4411 79.2057 68.9393 79.7577 67.7469 80.7483C66.4712 81.714 65.5415 83.0588 65.094 84.5856C64.9719 85.038 64.9089 85.5039 64.9066 85.9721C64.8952 86.855 65.1719 87.7179 65.6956 88.4326C66.0809 88.9589 66.5959 89.3787 67.1915 89.6522C67.787 89.9256 68.4434 90.0436 69.0981 89.9949C70.6515 89.9746 72.1499 89.4226 73.3389 88.4326C74.6262 87.4699 75.5639 86.1202 76.0115 84.5856C76.1342 84.1367 76.1972 83.6739 76.1989 83.2089C76.2082 82.3263 75.9317 81.464 75.4099 80.7483C75.0174 80.2274 74.4997 79.8117 73.9038 79.5389C73.308 79.2661 72.6527 79.1448 71.9976 79.1861Z" fill="black"/>
<path d="M89.5031 34.0961H78.9011C77.4753 34.0828 76.0862 34.5436 74.9562 35.4044C73.8027 36.2721 72.9735 37.495 72.5991 38.8804L65.0939 66.6494C64.6162 68.3695 63.5901 69.8908 62.1685 70.9869C60.7468 72.083 59.0056 72.6952 57.2041 72.7323H47.1248C46.4279 72.7492 45.7353 72.6195 45.0927 72.3519C44.4501 72.0843 43.8721 71.6848 43.3969 71.1799C42.9347 70.6868 42.6029 70.0882 42.4308 69.4375C42.2588 68.7868 42.2518 68.104 42.4106 67.45C42.9037 65.6339 43.4034 63.7917 43.9097 61.9236C45.4614 56.0651 47.0295 50.2262 48.614 44.4069C49.6594 40.0261 49.0841 36.3516 46.8881 33.3833C44.6921 30.415 41.4408 28.9341 37.1343 28.9406H14.1847C12.7592 28.9289 11.3706 29.3895 10.2398 30.249C9.08893 31.1172 8.26303 32.3403 7.8926 33.725C5.85439 41.1392 3.83262 48.5729 1.82728 56.0261C1.40321 57.6079 0.98899 59.1701 0.505738 60.7421C-0.539665 65.162 0.035635 68.8365 2.23164 71.7657C4.42764 74.6949 7.67891 76.1758 11.9854 76.2084H24.3528L23.2778 80.4362C22.7808 82.2726 21.637 83.8726 20.0528 84.9472C18.6982 85.8877 17.0914 86.4077 15.4372 86.4411C15.095 86.438 14.7627 86.555 14.4992 86.7712C14.2356 86.9874 14.0579 87.289 13.9974 87.6225L13.307 89.9756H20.7136C25.1707 89.9241 29.4718 88.3436 32.8836 85.5037C36.1002 83.0688 38.5746 79.8013 40.0338 76.0619C40.5715 76.1509 41.116 76.1934 41.6611 76.1888H62.4607C66.9108 76.1462 71.2097 74.5838 74.6307 71.7657C78.3084 68.9975 80.9911 65.1333 82.2839 60.7421L89.5031 34.0961ZM34.5701 38.568L26.986 66.581C26.4805 68.3248 25.4226 69.8616 23.9681 70.9651C22.6138 72.0858 20.9105 72.71 19.1455 72.7323C18.3953 72.7784 17.6455 72.6371 16.9648 72.3214C16.2841 72.0058 15.6944 71.526 15.2499 70.926C14.7023 70.1226 14.4197 69.1708 14.4412 68.2018C14.445 67.6565 14.5079 67.1131 14.6285 66.581L22.2126 38.568C22.7149 36.8201 23.7733 35.2792 25.2305 34.1742C26.5824 33.0492 28.2872 32.4244 30.0532 32.4069C30.7919 32.3651 31.5294 32.5078 32.198 32.8217C32.8666 33.1356 33.4449 33.6107 33.8797 34.2035C34.4718 34.993 34.7838 35.9542 34.7673 36.9374C34.7618 37.4864 34.6956 38.0332 34.5701 38.568Z" fill="black"/>
<path d="M165.344 6.64931C160.524 8.09824 156.167 10.7631 152.701 14.3824C149.092 17.8422 146.464 22.1785 145.077 26.9585L143.322 33.3539H145.827C146.169 33.3571 146.503 33.2476 146.776 33.0426C147.049 32.8377 147.246 32.5488 147.336 32.2213C147.758 30.6354 148.764 29.2632 150.156 28.3743C151.07 27.8489 152.107 27.5695 153.164 27.5639C153.692 27.5701 154.218 27.6323 154.732 27.7494C155.491 27.9726 156.195 28.3477 156.8 28.8517C157.406 29.3556 157.9 29.9774 158.253 30.6786C158.75 31.6183 159.008 32.6642 159.003 33.725C159.004 34.3093 158.941 34.8921 158.815 35.463L150.413 66.581C149.907 68.3247 148.849 69.8616 147.395 70.965C146.037 72.0872 144.33 72.7114 142.562 72.7323H132.651C131.948 72.7585 131.248 72.6332 130.599 72.3651C129.951 72.0971 129.368 71.6926 128.893 71.1798C128.433 70.6853 128.103 70.0867 127.931 69.4365C127.759 68.7862 127.751 68.1041 127.907 67.45C128.413 65.6339 128.916 63.7917 129.416 61.9235C130.967 56.0651 132.536 50.2262 134.12 44.4068C135.165 40.026 134.59 36.3515 132.394 33.3832C130.198 30.415 126.947 28.9341 122.64 28.9406H99.7204C98.2946 28.9274 96.9055 29.3881 95.7755 30.249C94.6248 31.1192 93.7963 32.3411 93.4184 33.725C91.4459 41.1391 89.4406 48.5728 87.4024 56.026C86.9783 57.598 86.5444 59.1701 86.0809 60.7421C85.0092 65.1619 85.5746 68.8365 87.7772 71.7657C89.9797 74.6949 93.231 76.1758 97.531 76.2083H109.888L108.823 80.4361C108.317 82.2733 107.166 83.8722 105.579 84.9471C104.228 85.889 102.624 86.4093 100.973 86.441C100.631 86.438 100.298 86.5549 100.035 86.7712C99.7713 86.9874 99.5935 87.2889 99.533 87.6225L98.8427 89.9756H106.239C110.697 89.9257 114.998 88.345 118.409 85.5037C121.629 83.0713 124.104 79.803 125.56 76.0618C126.101 76.1512 126.648 76.1937 127.197 76.1888H147.77C152.234 76.1384 156.544 74.5699 159.979 71.7461C163.664 68.9874 166.357 65.1301 167.662 60.7421C169.082 55.2742 171.403 46.6428 174.625 34.8478C174.745 34.3157 174.808 33.7724 174.812 33.227C174.812 30.9878 173.642 29.4776 171.301 28.6965L157.494 24.7909L155.423 24.166L181.272 17.3312C182.771 16.8737 184.124 16.0368 185.196 14.9031C186.268 13.7695 187.023 12.3784 187.386 10.8674L190.345 0L165.344 6.64931ZM120.106 38.5679L112.512 66.581C112.023 68.3175 110.987 69.8537 109.553 70.965C108.195 72.0858 106.489 72.7098 104.721 72.7323C103.972 72.7784 103.223 72.6372 102.544 72.3215C101.865 72.0058 101.277 71.5258 100.835 70.926C100.284 70.1234 99.9984 69.1718 100.016 68.2018C100.025 67.6567 100.088 67.1139 100.204 66.581L107.798 38.5679C108.29 36.8362 109.327 35.3043 110.756 34.1937C112.112 33.0687 113.82 32.4441 115.589 32.4264C116.328 32.3846 117.065 32.5273 117.734 32.8412C118.402 33.1551 118.981 33.6302 119.415 34.2229C120 35.0157 120.308 35.9754 120.293 36.9569C120.29 37.499 120.227 38.0392 120.106 38.5679Z" fill="black"/>
<path d="M265.496 58.1057C264.517 56.4251 264.002 54.5193 264.002 52.5793C264.002 50.6393 264.517 48.7334 265.496 47.0528L268.455 41.9267C269.436 40.2457 269.953 38.3386 269.955 36.397C269.956 34.4554 269.441 32.5476 268.461 30.8655C267.482 29.1834 266.072 27.7861 264.375 26.814C262.677 25.842 260.751 25.3294 258.79 25.3279H252.813C250.852 25.328 248.926 24.8174 247.228 23.8473C245.53 22.8773 244.119 21.4819 243.138 19.8014L240.18 14.6753C239.199 12.9945 237.788 11.5989 236.09 10.6286C234.392 9.65827 232.465 9.14746 230.505 9.14746C228.544 9.14746 226.618 9.65827 224.919 10.6286C223.221 11.5989 221.811 12.9945 220.83 14.6753L217.871 19.8014C216.891 21.4812 215.483 22.8762 213.786 23.8462C212.09 24.8163 210.165 25.3273 208.206 25.3279H202.18C200.218 25.3277 198.291 25.839 196.592 26.8104C194.893 27.7817 193.482 29.1789 192.501 30.8613C191.52 32.5437 191.005 34.4521 191.005 36.3945C191.006 38.337 191.523 40.245 192.505 41.9267L195.464 47.0528C196.443 48.7334 196.958 50.6393 196.958 52.5793C196.958 54.5193 196.443 56.4251 195.464 58.1057L192.505 63.2318C191.52 64.9131 191 66.8217 190.998 68.7653C190.996 70.7089 191.511 72.6188 192.493 74.3022C193.474 75.9856 194.886 77.3831 196.587 78.3537C198.288 79.3244 200.217 79.8338 202.18 79.8307H208.157C210.117 79.8313 212.042 80.3433 213.739 81.3153C215.436 82.2872 216.844 83.6847 217.822 85.3669L220.78 90.4833C221.761 92.1641 223.172 93.5597 224.87 94.53C226.568 95.5003 228.495 96.0111 230.455 96.0111C232.416 96.0111 234.342 95.5003 236.041 94.53C237.739 93.5597 239.149 92.1641 240.13 90.4833L243.089 85.3669C244.067 83.6832 245.477 82.2848 247.176 81.3128C248.874 80.3408 250.802 79.8296 252.764 79.8307H258.74C260.703 79.8321 262.631 79.3214 264.33 78.3501C266.03 77.3787 267.44 75.9811 268.42 74.2979C269.401 72.6148 269.915 70.7057 269.913 68.7629C269.91 66.8201 269.39 64.9124 268.405 63.2318L265.496 58.1057ZM218.492 40.2668C218.781 39.2532 219.394 38.3592 220.238 37.7184C221.032 37.0589 222.032 36.693 223.068 36.6834C223.469 36.6467 223.872 36.7077 224.244 36.8608C224.615 37.014 224.943 37.2548 225.199 37.5622C225.602 38.0739 225.831 38.6999 225.85 39.349C225.847 39.6585 225.807 39.9666 225.731 40.2668C225.407 41.2763 224.781 42.1648 223.936 42.8152C223.135 43.4544 222.135 43.7994 221.106 43.7916C220.712 43.8311 220.315 43.7743 219.949 43.6262C219.582 43.4781 219.258 43.2432 219.005 42.9422C218.609 42.4501 218.387 41.8429 218.374 41.2139C218.375 40.8947 218.415 40.5767 218.492 40.2668ZM242.527 64.8917C242.228 65.9058 241.605 66.7966 240.752 67.4304C239.965 68.0885 238.971 68.4545 237.941 68.4654C237.54 68.5077 237.135 68.4515 236.762 68.3016C236.388 68.1517 236.058 67.9128 235.801 67.6061C235.405 67.1141 235.183 66.5069 235.169 65.8779C235.171 65.5484 235.214 65.2204 235.298 64.9015C235.592 63.8852 236.211 62.9909 237.063 62.3531C237.85 61.6949 238.844 61.3289 239.874 61.3181C240.274 61.2814 240.678 61.3423 241.049 61.4955C241.42 61.6487 241.748 61.8894 242.004 62.1969C242.407 62.7084 242.632 63.3352 242.645 63.9837C242.642 64.2899 242.602 64.5947 242.527 64.8917ZM230.209 62.3824C228.559 65.2526 226.218 67.6744 223.394 69.432C220.874 71.1762 217.896 72.1566 214.824 72.2538L234.548 35.9218C235.066 35.0173 235.797 34.2502 236.678 33.6859C237.502 33.1494 238.464 32.8611 239.45 32.8559H246.235L230.209 62.3824Z" fill="#FFB000"/>
</svg>
