<svg width="69" height="77" viewBox="0 0 69 77" fill="none" xmlns="http://www.w3.org/2000/svg">
<path d="M65.1037 43.2176C64.2482 41.7472 63.7979 40.0797 63.7979 38.3823C63.7979 36.685 64.2482 35.0174 65.1037 33.547L67.6893 29.062C68.547 27.5913 68.999 25.9227 69 24.2239C69.001 22.5251 68.5509 20.8559 67.695 19.3842C66.839 17.9124 65.6073 16.6899 64.1237 15.8394C62.6401 14.9889 60.9568 14.5405 59.243 14.5391H54.0201C52.3067 14.5392 50.6235 14.0925 49.1394 13.2438C47.6553 12.395 46.4226 11.1742 45.5652 9.70383L42.9796 5.21881C42.1223 3.74823 40.8897 2.52715 39.4056 1.67819C37.9215 0.829244 36.2382 0.382324 34.5247 0.382324C32.8112 0.382324 31.1279 0.829244 29.6438 1.67819C28.1597 2.52715 26.9271 3.74823 26.0698 5.21881L23.4842 9.70383C22.6282 11.1735 21.397 12.394 19.9144 13.2428C18.4319 14.0915 16.7501 14.5386 15.038 14.5391H9.77197C8.05738 14.539 6.37299 14.9864 4.88818 15.8362C3.40337 16.6861 2.17048 17.9085 1.31352 19.3805C0.456548 20.8525 0.00570754 22.5222 0.00633187 24.2217C0.00695621 25.9212 0.459031 27.5906 1.31708 29.062L3.90267 33.547C4.75812 35.0174 5.20844 36.685 5.20844 38.3823C5.20844 40.0797 4.75812 41.7472 3.90267 43.2176L1.31708 47.7026C0.456243 49.1736 0.00194609 50.8435 6.23848e-06 52.5441C-0.00193361 54.2446 0.448554 55.9156 1.30603 57.3884C2.16351 58.8613 3.39766 60.084 4.88401 60.9333C6.37037 61.7825 8.05636 62.2283 9.77197 62.2255H14.9949C16.708 62.226 18.3907 62.674 19.8735 63.5244C21.3563 64.3748 22.5869 65.5975 23.4411 67.0694L26.0267 71.5458C26.884 73.0164 28.1166 74.2375 29.6007 75.0864C31.0848 75.9354 32.7681 76.3823 34.4816 76.3823C36.1951 76.3823 37.8784 75.9354 39.3625 75.0864C40.8466 74.2375 42.0792 73.0164 42.9365 71.5458L45.5221 67.0694C46.3771 65.5962 47.609 64.3727 49.0935 63.5223C50.5779 62.6718 52.2624 62.2245 53.977 62.2255H59.1999C60.9148 62.2268 62.5997 61.7799 64.0848 60.9301C65.57 60.0802 66.8029 58.8574 67.6594 57.3847C68.5158 55.9121 68.9655 54.2417 68.9632 52.5419C68.9609 50.8421 68.5066 49.173 67.6462 47.7026L65.1037 43.2176ZM24.0272 27.6097C24.2797 26.7229 24.8149 25.9407 25.5527 25.38C26.2463 24.803 27.1207 24.4829 28.0262 24.4745C28.3763 24.4424 28.7289 24.4957 29.0534 24.6297C29.3779 24.7637 29.6644 24.9744 29.8879 25.2434C30.2407 25.6911 30.44 26.2388 30.4567 26.8067C30.4545 27.0775 30.4197 27.3471 30.3533 27.6097C30.0697 28.493 29.5228 29.2703 28.7847 29.8394C28.0844 30.3987 27.2104 30.7005 26.3111 30.6937C25.9672 30.7283 25.6199 30.6786 25.2998 30.549C24.9797 30.4194 24.6966 30.2139 24.4754 29.9505C24.1293 29.52 23.9355 28.9887 23.9238 28.4384C23.9246 28.1591 23.9593 27.8809 24.0272 27.6097ZM45.0308 49.1549C44.7698 50.0422 44.2254 50.8215 43.4795 51.3761C42.7919 51.9519 41.9233 52.2721 41.0232 52.2816C40.6731 52.3187 40.3192 52.2694 39.9929 52.1383C39.6666 52.0071 39.3781 51.7981 39.1529 51.5298C38.8069 51.0993 38.6131 50.5681 38.6013 50.0177C38.6027 49.7295 38.6404 49.4425 38.7134 49.1635C38.9705 48.2743 39.5119 47.4918 40.2561 46.9338C40.9437 46.3579 41.8123 46.0377 42.7124 46.0282C43.0625 45.9961 43.4151 46.0494 43.7396 46.1834C44.0641 46.3174 44.3506 46.5281 44.5741 46.7971C44.926 47.2447 45.1225 47.7931 45.1343 48.3604C45.1313 48.6284 45.0966 48.895 45.0308 49.1549ZM34.2662 46.9594C32.8244 49.4707 30.7785 51.5896 28.3107 53.1274C26.1088 54.6534 23.5064 55.5112 20.8211 55.5963L38.0584 23.8081C38.5106 23.0168 39.1493 22.3456 39.92 21.8518C40.6393 21.3825 41.4806 21.1302 42.3418 21.1257H48.2714L34.2662 46.9594Z" fill="#747474"/>
</svg>
