<svg width="53" height="53" viewBox="0 0 53 53" fill="none" xmlns="http://www.w3.org/2000/svg">
<path d="M44.0845 36.2259L48.6331 22.5801C52.6067 10.6594 54.5935 4.69904 51.4472 1.55278C48.301 -1.59348 42.3406 0.3933 30.4199 4.36687L16.7741 8.91545C7.15297 12.1225 2.34239 13.726 0.975356 16.0775C-0.325118 18.3145 -0.325118 21.0773 0.975354 23.3143C2.34238 25.6657 7.15297 27.2693 16.7741 30.4763C17.9665 30.8738 19.3079 30.59 20.2008 29.7054L34.7907 15.2506C35.6115 14.4374 36.9362 14.4436 37.7494 15.2644C38.5626 16.0852 38.5564 17.4098 37.7356 18.2231L23.3813 32.4444C22.3971 33.4194 22.0856 34.9117 22.5237 36.2259C25.7307 45.847 27.3343 50.6576 29.6857 52.0246C31.9227 53.3251 34.6855 53.3251 36.9225 52.0246C39.274 50.6576 40.8775 45.847 44.0845 36.2259Z" fill="#747474"/>
</svg>
