<svg width="40" height="35" viewBox="0 0 40 35" fill="none" xmlns="http://www.w3.org/2000/svg">
<path d="M26.2958 28.347C26.2713 27.0078 26.6487 25.6915 27.3803 24.5642C28.1119 23.437 29.1648 22.5495 30.4062 22.0137C31.6476 21.4779 33.0217 21.3179 34.3549 21.554C35.6882 21.79 36.9208 22.4114 37.8971 23.3398C38.8734 24.2682 39.5496 25.4619 39.8403 26.7701C40.131 28.0783 40.0232 29.4423 39.5304 30.6899C39.0376 31.9376 38.182 33.0128 37.0716 33.7798C35.9612 34.5469 34.6459 34.9713 33.2918 34.9995H33.1753C32.2817 35.0101 31.3948 34.8463 30.5652 34.5175C29.7357 34.1888 28.9798 33.7015 28.3409 33.0837C27.7019 32.4658 27.1924 31.7294 26.8415 30.9167C26.4906 30.1039 26.3051 29.2307 26.2958 28.347ZM3.17589 31.3499C2.7767 31.3794 2.37562 31.3283 1.99698 31.1999C1.61834 31.0715 1.27001 30.8683 0.973138 30.6028C0.676261 30.3372 0.437015 30.0148 0.269905 29.6551C0.102796 29.2954 0.0113061 28.9059 0.000983156 28.5102C-0.00933975 28.1145 0.0617195 27.7208 0.209852 27.353C0.357985 26.9853 0.580104 26.6511 0.862741 26.3708C1.14538 26.0905 1.48264 25.8699 1.85409 25.7223C2.22553 25.5747 2.62341 25.5033 3.02361 25.5123H16.2721C17.031 25.5295 17.7542 25.8347 18.2917 26.3647C18.8293 26.8948 19.14 27.609 19.1596 28.3594C19.1792 29.1098 18.9061 29.839 18.3969 30.3957C17.8877 30.9524 17.1814 31.2941 16.4244 31.3499H3.17589ZM0.148174 6.65313C0.155178 5.76951 0.33872 4.89596 0.688249 4.08272C1.03778 3.26947 1.5464 2.53256 2.18488 1.91434C2.82336 1.29612 3.5791 0.808795 4.40866 0.480366C5.23823 0.151938 6.12526 -0.0111124 7.01875 0.000587884C7.91001 -0.00758975 8.79414 0.158063 9.6206 0.488073C10.4471 0.818082 11.1996 1.30597 11.8352 1.92384C12.4709 2.54171 12.9771 3.27743 13.3249 4.08892C13.6728 4.90042 13.8554 5.77177 13.8625 6.65313C13.8435 8.43007 13.1122 10.1269 11.829 11.371C10.5458 12.615 8.81567 13.3045 7.01875 13.288C6.12707 13.2985 5.24201 13.1352 4.41414 12.8075C3.58626 12.4797 2.83178 11.9939 2.19378 11.3778C1.55577 10.7617 1.04674 10.0274 0.695754 9.21669C0.344767 8.40602 0.158699 7.53492 0.148174 6.65313ZM23.9041 9.5675C23.1225 9.5675 22.3729 9.26045 21.8202 8.7139C21.2675 8.16735 20.957 7.42607 20.957 6.65313C20.957 5.8802 21.2675 5.13892 21.8202 4.59237C22.3729 4.04582 23.1225 3.73877 23.9041 3.73877H36.9913C37.7729 3.73877 38.5225 4.04582 39.0752 4.59237C39.6279 5.13892 39.9384 5.8802 39.9384 6.65313C39.9384 7.42607 39.6279 8.16735 39.0752 8.7139C38.5225 9.26045 37.7729 9.5675 36.9913 9.5675H23.9041Z" fill="black"/>
</svg>
