<svg width="84" height="59" viewBox="0 0 84 59" fill="none" xmlns="http://www.w3.org/2000/svg">
<path d="M32.55 29.5C32.55 34.7368 36.7809 38.9821 42 38.9821C47.2191 38.9821 51.45 34.7368 51.45 29.5C51.45 24.2632 47.2191 20.0179 42 20.0179C36.7809 20.0179 32.55 24.2632 32.55 29.5Z" fill="#FFB000"/>
<path fill-rule="evenodd" clip-rule="evenodd" d="M7.46642 56.1591C11.7038 59 17.6025 59 29.4 59L54.6 59C66.3975 59 72.2962 59 76.5336 56.1591C78.368 54.9292 79.943 53.3488 81.1687 51.5082C84 47.2564 84 41.3376 84 29.5C84 17.6624 84 11.7436 81.1687 7.49181C79.943 5.65118 78.368 4.07081 76.5336 2.84094C72.2962 0 66.3975 0 54.6 0H29.4C17.6025 0 11.7038 0 7.46642 2.84094C5.63202 4.07081 4.05701 5.65118 2.83131 7.49182C0 11.7436 0 17.6624 0 29.5C0 41.3376 0 47.2564 2.83131 51.5082C4.05701 53.3488 5.63203 54.9292 7.46642 56.1591ZM42 45.3036C33.3015 45.3036 26.25 38.2281 26.25 29.5C26.25 20.7719 33.3015 13.6964 42 13.6964C50.6985 13.6964 57.75 20.7719 57.75 29.5C57.75 38.2281 50.6985 45.3036 42 45.3036ZM14.7 45.3036C12.9603 45.3036 11.55 43.8885 11.55 42.1429L11.55 16.8571C11.55 15.1115 12.9603 13.6964 14.7 13.6964C16.4397 13.6964 17.85 15.1115 17.85 16.8571L17.85 42.1429C17.85 43.8885 16.4397 45.3036 14.7 45.3036ZM66.15 42.1429C66.15 43.8885 67.5603 45.3036 69.3 45.3036C71.0397 45.3036 72.45 43.8885 72.45 42.1429V16.8571C72.45 15.1115 71.0397 13.6964 69.3 13.6964C67.5603 13.6964 66.15 15.1115 66.15 16.8571V42.1429Z" fill="#FFB000"/>
</svg>
