<svg width="74" height="74" viewBox="0 0 74 74" fill="none" xmlns="http://www.w3.org/2000/svg">
<path d="M3.86359 0.152698C2.32595 -0.364251 0.663944 0.473888 0.151398 2.02473C-0.361149 3.57558 0.469853 5.25186 2.00749 5.76881L3.04409 6.11731C5.69086 7.00714 7.44075 7.60016 8.72989 8.20502C9.95059 8.77778 10.4784 9.23872 10.8165 9.71193C11.1547 10.1851 11.4213 10.8359 11.5741 12.185C11.7353 13.6098 11.7398 15.4716 11.7398 18.2855L11.7398 28.8302C11.7397 34.2276 11.7396 38.578 12.1957 41.9995C12.6693 45.5519 13.6823 48.5429 16.0376 50.9185C18.3929 53.294 21.3585 54.3157 24.8806 54.7933C28.273 55.2533 32.5864 55.2533 37.9377 55.2532H65.5434C67.1642 55.2532 68.4782 53.928 68.4782 52.2932C68.4782 50.6585 67.1642 49.3333 65.5434 49.3333H38.1525C32.5357 49.3333 28.6184 49.327 25.6627 48.9262C22.7914 48.5369 21.2709 47.8247 20.188 46.7325C19.2677 45.8043 18.6196 44.5574 18.2087 42.4268H57.8037C61.5579 42.4268 63.4349 42.4268 64.9051 41.449C66.3752 40.4713 67.1146 38.7312 68.5935 35.2509L70.2705 31.3043C73.438 23.8499 75.0218 20.1226 73.2821 17.4616C71.5423 14.8006 67.5218 14.8006 59.4807 14.8006H17.5899C17.5668 13.5862 17.5163 12.4906 17.4057 11.5135C17.1891 9.60012 16.7171 7.84443 15.5781 6.2505C14.439 4.65657 12.9369 3.64981 11.2056 2.83751C9.5769 2.07331 7.50565 1.37705 5.05466 0.553128L3.86359 0.152698Z" fill="#747474"/>
<path d="M24.4562 62.1599C27.6978 62.1599 30.3257 64.8103 30.3257 68.0798C30.3257 71.3493 27.6978 73.9997 24.4562 73.9997C21.2146 73.9997 18.5867 71.3493 18.5867 68.0798C18.5867 64.8103 21.2146 62.1599 24.4562 62.1599Z" fill="#747474"/>
<path d="M59.6731 62.1602C62.9148 62.1602 65.5426 64.8106 65.5426 68.0801C65.5426 71.3496 62.9148 74 59.6731 74C56.4315 74 53.8037 71.3496 53.8037 68.0801C53.8037 64.8106 56.4315 62.1602 59.6731 62.1602Z" fill="#747474"/>
</svg>
