<svg width="67" height="73" viewBox="0 0 67 73" fill="none" xmlns="http://www.w3.org/2000/svg">
<path d="M19.9206 66.5827C23.0513 70.4852 27.9695 73 33.5 73C39.0306 73 43.9488 70.4852 47.0795 66.5828C38.0651 67.7804 28.935 67.7804 19.9206 66.5827Z" fill="black"/>
<path d="M58.6218 25.55V28.12C58.6218 31.2042 59.5194 34.2194 61.2015 36.7856L65.3237 43.0742C69.0888 48.8182 66.2144 56.6258 59.6659 58.4422C42.5348 63.1939 24.4652 63.1939 7.33413 58.4422C0.785562 56.6258 -2.08882 48.8182 1.67634 43.0742L5.79847 36.7856C7.48061 34.2194 8.37824 31.2042 8.37824 28.12V25.55C8.37824 11.4391 19.6256 0 33.5 0C47.3744 0 58.6218 11.4391 58.6218 25.55Z" fill="black"/>
</svg>
