<svg width="40" height="40" viewBox="0 0 40 40" fill="none" xmlns="http://www.w3.org/2000/svg">
<path d="M15.094 3.29043L16.7165 6.19775C18.1808 8.82146 17.593 12.2633 15.2868 14.5695C15.2868 14.5695 15.2868 14.5695 15.2868 14.5695C15.2866 14.5696 12.4895 17.367 17.5613 22.4387C22.6323 27.5097 25.4297 24.714 25.4305 24.7132C25.4305 24.7132 25.4305 24.7132 25.4305 24.7132C27.7367 22.407 31.1786 21.8192 33.8022 23.2835L36.7096 24.906C40.6714 27.1171 41.1393 32.6731 37.6569 36.1555C35.5644 38.248 33.001 39.8762 30.1673 39.9836C25.3969 40.1645 17.2957 38.9572 9.16926 30.8307C1.04282 22.7043 -0.164463 14.6031 0.0163791 9.83272C0.123805 6.999 1.75201 4.43559 3.84451 2.34308C7.32689 -1.1393 12.8829 -0.671407 15.094 3.29043Z" fill="#747474"/>
</svg>
