<svg width="52" height="66" viewBox="0 0 52 66" fill="none" xmlns="http://www.w3.org/2000/svg">
<path d="M0 54.6578C0 45.6744 11.9787 43.45 26.006 43.45C40.0334 43.45 52 45.7478 52 54.7311C52 63.7144 40.0213 66 26.006 66C11.9907 66 0 63.6289 0 54.6578ZM8.79722 17.4533C8.79722 14.0014 9.8065 10.627 11.6974 7.75679C13.5884 4.8866 16.276 2.64956 19.4205 1.32856C22.565 0.00756228 26.0251 -0.338072 29.3633 0.335369C32.7015 1.00881 35.7678 2.67108 38.1745 5.11197C40.5812 7.55286 42.2202 10.6627 42.8842 14.0484C43.5482 17.434 43.2074 20.9433 41.9049 24.1324C40.6024 27.3216 38.3967 30.0475 35.5667 31.9653C32.7368 33.883 29.4096 34.9067 26.006 34.9067C21.46 34.9229 17.0937 33.1078 13.8667 29.8602C10.6398 26.6126 8.81636 22.1984 8.79722 17.5878V17.4533Z" fill="#747474"/>
</svg>
