<svg width="13" height="11" viewBox="0 0 13 11" fill="none" xmlns="http://www.w3.org/2000/svg">
<path d="M7.99758 0.186103C6.44107 0.20571 4.93932 0.757652 3.74694 1.74835C2.47123 2.71396 1.54148 4.05876 1.09398 5.58561C0.97192 6.03795 0.908943 6.50392 0.90659 6.97211C0.895174 7.855 1.17189 8.71795 1.69558 9.43265C2.0809 9.95889 2.59587 10.3787 3.19145 10.6522C3.78703 10.9256 4.4434 11.0436 5.09806 10.9949C6.65147 10.9746 8.14991 10.4226 9.33885 9.43265C10.6262 8.46989 11.5639 7.12018 12.0115 5.58561C12.1342 5.13672 12.1972 4.67391 12.1989 4.20889C12.2082 3.32632 11.9317 2.46399 11.4099 1.74835C11.0174 1.22741 10.4997 0.811697 9.90382 0.538898C9.30795 0.266099 8.65275 0.144838 7.99758 0.186103Z" fill="black"/>
</svg>
