<svg width="106" height="90" viewBox="0 0 106 90" fill="none" xmlns="http://www.w3.org/2000/svg">
<path d="M80.3441 6.64931C75.5237 8.09824 71.1667 10.7631 67.7007 14.3824C64.0923 17.8422 61.4636 22.1785 60.0771 26.9585L58.3216 33.3539H60.8266C61.1693 33.3571 61.5033 33.2476 61.7764 33.0426C62.0494 32.8377 62.2461 32.5488 62.3356 32.2213C62.7579 30.6354 63.764 29.2632 65.1562 28.3743C66.0702 27.8489 67.1073 27.5695 68.1642 27.5639C68.6921 27.5701 69.2178 27.6323 69.7323 27.7494C70.4907 27.9726 71.1945 28.3477 71.8002 28.8517C72.4059 29.3556 72.9005 29.9774 73.2531 30.6786C73.7502 31.6183 74.0075 32.6642 74.0027 33.725C74.0043 34.3093 73.9415 34.8921 73.8153 35.463L65.4126 66.581C64.9071 68.3247 63.8492 69.8616 62.3947 70.965C61.0373 72.0872 59.3305 72.7114 57.5622 72.7323H47.6506C46.9481 72.7585 46.2482 72.6332 45.5994 72.3651C44.9506 72.0971 44.3684 71.6926 43.8931 71.1798C43.4332 70.6853 43.1028 70.0867 42.9309 69.4365C42.7589 68.7862 42.7507 68.1041 42.9068 67.45C43.4131 65.6339 43.9161 63.7917 44.4158 61.9235C45.9674 56.0651 47.5355 50.2262 49.1201 44.4068C50.1655 40.026 49.5902 36.3515 47.3942 33.3832C45.1982 30.415 41.9469 28.9341 37.6404 28.9406H14.7204C13.2946 28.9274 11.9055 29.3881 10.7755 30.249C9.62478 31.1192 8.79626 32.3411 8.4184 33.725C6.44594 41.1391 4.44061 48.5728 2.40241 56.026C1.97833 57.598 1.54438 59.1701 1.08085 60.7421C0.00915188 65.1619 0.574591 68.8365 2.77717 71.7657C4.97975 74.6949 8.23102 76.1758 12.531 76.2083H24.8884L23.8233 80.4361C23.3166 82.2733 22.1665 83.8722 20.5786 84.9471C19.2284 85.889 17.6243 86.4093 15.9729 86.441C15.6307 86.438 15.2984 86.5549 15.0348 86.7711C14.7713 86.9874 14.5935 87.2889 14.533 87.6225L13.8427 89.9756H21.2394C25.6968 89.9257 29.9985 88.345 33.4095 85.5037C36.6286 83.0713 39.1036 79.803 40.5596 76.0618C41.1006 76.1512 41.6484 76.1937 42.1968 76.1888H62.7695C67.2336 76.1384 71.5445 74.5699 74.979 71.7461C78.6643 68.9874 81.3573 65.1301 82.6618 60.7421C84.0819 55.2742 86.4028 46.6428 89.6245 34.8478C89.7452 34.3157 89.808 33.7724 89.8119 33.227C89.8119 30.9878 88.6416 29.4776 86.3009 28.6965L72.4937 24.7909L70.4226 24.166L96.2717 17.3312C97.7709 16.8737 99.1236 16.0368 100.196 14.9031C101.268 13.7695 102.023 12.3784 102.386 10.8674L105.345 0L80.3441 6.64931ZM35.1058 38.5679L27.5118 66.581C27.0234 68.3175 25.9866 69.8537 24.5531 70.965C23.1949 72.0858 21.4886 72.7098 19.7206 72.7323C18.9718 72.7784 18.2233 72.6372 17.5442 72.3215C16.8651 72.0058 16.2772 71.5258 15.8348 70.926C15.2843 70.1234 14.9984 69.1718 15.0163 68.2018C15.0251 67.6567 15.0878 67.1139 15.2037 66.581L22.7976 38.5679C23.2905 36.8362 24.3266 35.3043 25.7563 34.1937C27.1121 33.0687 28.82 32.4441 30.5888 32.4264C31.3276 32.3846 32.0651 32.5273 32.7337 32.8412C33.4023 33.1551 33.9806 33.6302 34.4154 34.2229C35 35.0157 35.3081 35.9754 35.2932 36.9569C35.2898 37.499 35.2269 38.0392 35.1058 38.5679Z" fill="black"/>
</svg>
