<svg width="79" height="88" viewBox="0 0 79 88" fill="none" xmlns="http://www.w3.org/2000/svg">
<path d="M74.496 49.1057C73.5171 47.4251 73.0018 45.5193 73.0018 43.5793C73.0018 41.6393 73.5171 39.7334 74.496 38.0528L77.4547 32.9267C78.4362 31.2457 78.9534 29.3386 78.9546 27.397C78.9557 25.4554 78.4407 23.5476 77.4612 21.8655C76.4818 20.1834 75.0724 18.7861 73.3747 17.814C71.677 16.842 69.7508 16.3294 67.7896 16.3279H61.8131C59.8525 16.328 57.9263 15.8174 56.2281 14.8473C54.5299 13.8773 53.1194 12.4819 52.1382 10.8014L49.1795 5.67529C48.1985 3.9945 46.7881 2.59887 45.0898 1.62857C43.3916 0.658265 41.4653 0.147461 39.5046 0.147461C37.5438 0.147461 35.6176 0.658265 33.9194 1.62857C32.2211 2.59887 30.8107 3.9945 29.8297 5.67529L26.871 10.8014C25.8914 12.4812 24.4826 13.8762 22.7861 14.8462C21.0896 15.8163 19.1651 16.3273 17.2059 16.3279H11.1801C9.21809 16.3277 7.29065 16.839 5.59158 17.8104C3.89252 18.7817 2.48173 20.1789 1.5011 21.8613C0.520474 23.5437 0.00457799 25.4521 0.00529242 27.3945C0.00600685 29.337 0.523315 31.245 1.50518 32.9267L4.46387 38.0528C5.44276 39.7334 5.95805 41.6393 5.95805 43.5793C5.95805 45.5193 5.44276 47.4251 4.46387 49.1057L1.50518 54.2318C0.520124 55.9131 0.000273777 57.8217 -0.00194599 59.7653C-0.00416575 61.7089 0.511326 63.6188 1.49254 65.3022C2.47375 66.9856 3.88598 68.3831 5.58681 69.3537C7.28764 70.3244 9.21692 70.8338 11.1801 70.8307H17.1566C19.1169 70.8313 21.0425 71.3433 22.7393 72.3153C24.436 73.2872 25.8441 74.6847 26.8217 76.3669L29.7804 81.4833C30.7614 83.1641 32.1718 84.5597 33.8701 85.53C35.5683 86.5003 37.4945 87.0111 39.4553 87.0111C41.416 87.0111 43.3423 86.5003 45.0405 85.53C46.7387 84.5597 48.1492 83.1641 49.1302 81.4833L52.0889 76.3669C53.0673 74.6832 54.4769 73.2848 56.1756 72.3128C57.8742 71.3408 59.8018 70.8296 61.7638 70.8307H67.7403C69.7027 70.8321 71.6307 70.3214 73.3301 69.3501C75.0296 68.3787 76.4404 66.9811 77.4205 65.2979C78.4005 63.6148 78.9152 61.7057 78.9125 59.7629C78.9099 57.8201 78.39 55.9124 77.4054 54.2318L74.496 49.1057ZM27.4923 31.2668C27.7813 30.2532 28.3936 29.3592 29.2379 28.7184C30.0316 28.0589 31.0322 27.693 32.0684 27.6834C32.469 27.6467 32.8725 27.7077 33.2438 27.8608C33.6151 28.014 33.9429 28.2548 34.1987 28.5622C34.6024 29.0739 34.8305 29.6999 34.8496 30.349C34.847 30.6585 34.8073 30.9666 34.7312 31.2668C34.4067 32.2763 33.7809 33.1648 32.9363 33.8152C32.1349 34.4544 31.1349 34.7994 30.1058 34.7916C29.7122 34.8311 29.3148 34.7743 28.9485 34.6262C28.5822 34.4781 28.2583 34.2432 28.0052 33.9422C27.6092 33.4501 27.3874 32.8429 27.374 32.2139C27.3749 31.8947 27.4147 31.5767 27.4923 31.2668ZM51.5267 55.8917C51.228 56.9058 50.6051 57.7966 49.7515 58.4304C48.9647 59.0885 47.9707 59.4545 46.9408 59.4654C46.5401 59.5077 46.1352 59.4515 45.7618 59.3016C45.3885 59.1517 45.0583 58.9128 44.8006 58.6061C44.4046 58.1141 44.1829 57.5069 44.1695 56.8779C44.171 56.5484 44.2141 56.2204 44.2977 55.9015C44.5919 54.8852 45.2114 53.9909 46.063 53.3531C46.8498 52.6949 47.8438 52.3289 48.8738 52.3181C49.2743 52.2814 49.6779 52.3423 50.0492 52.4955C50.4205 52.6487 50.7483 52.8895 51.004 53.1969C51.4067 53.7084 51.6316 54.3352 51.6451 54.9837C51.6417 55.2899 51.602 55.5947 51.5267 55.8917ZM39.2087 53.3824C37.559 56.2526 35.2179 58.6744 32.3939 60.432C29.8743 62.1762 26.8964 63.1566 23.8236 63.2538L43.5481 26.9218C44.0657 26.0173 44.7965 25.2502 45.6784 24.6859C46.5015 24.1494 47.4642 23.8611 48.4497 23.8559H55.235L39.2087 53.3824Z" fill="#FFB000"/>
</svg>
