<svg width="90" height="62" viewBox="0 0 90 62" fill="none" xmlns="http://www.w3.org/2000/svg">
<path d="M89.5031 6.09606H78.9011C77.4753 6.08285 76.0862 6.54355 74.9562 7.40444C73.8027 8.27212 72.9735 9.49496 72.5991 10.8804L65.0939 38.6494C64.6162 40.3695 63.5901 41.8908 62.1685 42.9869C60.7468 44.083 59.0056 44.6952 57.2041 44.7323H47.1248C46.4279 44.7492 45.7353 44.6195 45.0927 44.3519C44.4501 44.0843 43.8721 43.6848 43.3969 43.1799C42.9347 42.6868 42.6029 42.0882 42.4308 41.4375C42.2588 40.7868 42.2518 40.104 42.4106 39.45C42.9037 37.6339 43.4034 35.7917 43.9097 33.9236C45.4614 28.0651 47.0295 22.2262 48.614 16.4069C49.6594 12.0261 49.0841 8.35155 46.8881 5.38328C44.6921 2.41502 41.4408 0.934138 37.1343 0.940647H14.1847C12.7592 0.928946 11.3706 1.38949 10.2398 2.24903C9.08893 3.11721 8.26303 4.34028 7.8926 5.72503C5.85439 13.1392 3.83262 20.5729 1.82728 28.0261C1.40321 29.6079 0.98899 31.1701 0.505738 32.7421C-0.539666 37.162 0.035635 40.8365 2.23164 43.7657C4.42764 46.6949 7.67891 48.1758 11.9854 48.2084H24.3528L23.2778 52.4362C22.7808 54.2726 21.637 55.8726 20.0528 56.9472C18.6982 57.8877 17.0914 58.4077 15.4372 58.4411C15.095 58.438 14.7627 58.555 14.4992 58.7712C14.2356 58.9874 14.0579 59.289 13.9974 59.6225L13.307 61.9756H20.7136C25.1707 61.9241 29.4718 60.3436 32.8836 57.5037C36.1002 55.0688 38.5746 51.8013 40.0338 48.0619C40.5715 48.1509 41.116 48.1934 41.6611 48.1888H62.4607C66.9108 48.1462 71.2097 46.5838 74.6307 43.7657C78.3084 40.9975 80.9911 37.1333 82.2839 32.7421L89.5031 6.09606ZM34.5701 10.568L26.986 38.581C26.4805 40.3248 25.4226 41.8616 23.9681 42.9651C22.6138 44.0858 20.9105 44.71 19.1455 44.7323C18.3953 44.7784 17.6455 44.6371 16.9648 44.3214C16.2841 44.0058 15.6944 43.526 15.2499 42.926C14.7023 42.1226 14.4197 41.1708 14.4412 40.2018C14.445 39.6565 14.5079 39.1131 14.6285 38.581L22.2126 10.568C22.7149 8.82009 23.7733 7.2792 25.2305 6.17417C26.5824 5.04916 28.2872 4.42441 30.0532 4.40688C30.7919 4.36515 31.5294 4.50778 32.198 4.82169C32.8666 5.13559 33.4449 5.61072 33.8797 6.20346C34.4718 6.99304 34.7838 7.95415 34.7673 8.9374C34.7618 9.48642 34.6956 10.0332 34.5701 10.568Z" fill="black"/>
</svg>
